<?xml version="1.0" encoding="UTF-8"?>
<svg id="_图层_2" data-name="图层 2" xmlns="http://www.w3.org/2000/svg" viewBox="0 0 166.06 166.06">
  <defs>
    <style>
      .cls-1 {
        fill: #fff;
      }

      .cls-1, .cls-2 {
        stroke-width: 0px;
      }

      .cls-2 {
        fill: #7e318e;
      }
    </style>
  </defs>
  <g id="_图层_1-2" data-name="图层 1">
    <rect class="cls-2" width="166.06" height="166.06" rx="18.1" ry="18.1"/>
    <g>
      <polygon class="cls-1" points="63.33 18.64 12.64 44.08 12.64 44.91 12.64 68.66 12.64 69.49 39.78 83.11 12.64 96.73 12.64 97.56 12.64 121.3 12.64 122.14 63.33 147.57 63.33 122.99 36.3 109.43 63.33 95.87 63.33 94.93 63.33 71.29 63.33 70.35 36.3 56.78 63.33 43.22 63.33 18.64"/>
      <polygon class="cls-1" points="102.74 18.64 153.43 44.08 153.43 44.91 153.43 68.66 153.43 69.49 126.29 83.11 153.43 96.73 153.43 97.56 153.43 121.3 153.43 122.14 102.74 147.57 102.74 122.99 129.76 109.43 102.74 95.87 102.74 94.93 102.74 71.29 102.74 70.35 129.76 56.78 102.74 43.22 102.74 18.64"/>
      <g>
        <rect class="cls-1" x="70.33" y="70.47" width="25.41" height="25.41" rx="6.02" ry="6.02"/>
        <rect class="cls-1" x="70.33" y="123.03" width="25.41" height="24.54" rx="6.02" ry="6.02"/>
        <rect class="cls-1" x="70.33" y="18.49" width="25.41" height="24.54" rx="6.02" ry="6.02"/>
      </g>
    </g>
  </g>
</svg>